<?xml version="1.0" standalone="no"?>
<!DOCTYPE svg PUBLIC "-//W3C//DTD SVG 20010904//EN"
 "http://www.w3.org/TR/2001/REC-SVG-20010904/DTD/svg10.dtd">
<svg version="1.0" xmlns="http://www.w3.org/2000/svg"
 width="785.000000pt" height="785.000000pt" viewBox="0 0 785.000000 785.000000"
 preserveAspectRatio="xMidYMid meet">
<metadata>
Created by potrace 1.11, written by Peter Selinger 2001-2013
</metadata>
<g transform="translate(0.000000,785.000000) scale(0.100000,-0.100000)"
fill="#000000" stroke="none">
<path d="M2430 7843 c-77 -26 -132 -79 -150 -143 -6 -20 -10 -212 -10 -451 l0
-416 -49 -94 c-26 -52 -68 -132 -93 -179 -44 -83 -109 -207 -244 -467 -37 -71
-87 -166 -112 -213 -44 -84 -104 -198 -222 -426 l-60 -115 0 -2585 c0 -2580 0
-2584 20 -2628 25 -53 63 -89 114 -110 35 -14 257 -16 2302 -16 2257 0 2265 0
2308 20 53 25 89 63 110 114 14 34 16 286 16 2622 l0 2584 -87 167 c-48 93
-104 200 -124 238 -21 39 -53 102 -73 140 -19 39 -63 122 -96 185 -34 63 -95
180 -137 260 -42 80 -99 190 -128 245 -29 55 -71 135 -94 178 l-41 79 0 416
c0 240 -4 432 -10 452 -13 49 -66 109 -114 131 -39 18 -104 18 -1526 18 -817
0 -1492 -3 -1500 -6z m2730 -628 l0 -215 -1235 0 -1235 0 0 215 0 215 1235 0
1235 0 0 -215z m-168 -687 c-28 -50 -69 -130 -212 -403 -35 -66 -82 -156 -105
-200 -91 -173 -199 -381 -209 -402 l-11 -23 -1202 0 c-1141 0 -1202 1 -1196
18 3 9 9 22 13 27 8 11 99 185 230 440 45 88 86 165 90 170 4 6 51 96 105 200
54 105 103 198 109 208 10 16 79 17 1214 17 l1203 0 -29 -52z m450 -338 c36
-69 83 -159 105 -200 22 -41 82 -156 133 -255 52 -99 100 -191 107 -205 l13
-25 -432 -3 c-237 -1 -433 0 -435 2 -2 2 4 19 15 37 10 19 51 97 92 174 40 77
96 185 125 240 85 161 161 307 180 344 9 18 20 29 25 25 4 -5 37 -65 72 -134z
m-1072 -3440 l0 -2330 -1230 0 -1230 0 0 2330 0 2330 1230 0 1230 0 0 -2330z
m1570 0 l0 -2330 -575 0 -575 0 0 2330 0 2330 575 0 575 0 0 -2330z"/>
</g>
</svg>
